<svg xmlns="http://www.w3.org/2000/svg" version="1.1" xmlns:xlink="http://www.w3.org/1999/xlink" xmlns:svgjs="http://svgjs.dev/svgjs" width="1000" height="184" viewBox="0 0 1000 184"><g transform="matrix(1,0,0,1,-0.6060469370323744,0.494643573913649)"><svg viewBox="0 0 396 73" data-background-color="#636365" preserveAspectRatio="xMidYMid meet" height="184" width="1000" xmlns="http://www.w3.org/2000/svg" xmlns:xlink="http://www.w3.org/1999/xlink"><g id="tight-bounds" transform="matrix(1,0,0,1,0.2399945870648139,-0.19624446138965368)"><svg viewBox="0 0 395.52 73.39248892277932" height="73.39248892277932" width="395.52"><g><svg viewBox="0 0 505.3000361476343 93.76321628652215" height="73.39248892277932" width="395.52"><g transform="matrix(1,0,0,1,109.7800361476343,12.958592120640908)"><svg viewBox="0 0 395.52 67.84603204524034" height="67.84603204524034" width="395.52"><g id="textblocktransform"><svg viewBox="0 0 395.52 67.84603204524034" height="67.84603204524034" width="395.52" id="textblock"><g><svg viewBox="0 0 395.52 67.84603204524034" height="67.84603204524034" width="395.52"><g transform="matrix(1,0,0,1,0,0)"><svg width="395.52" viewBox="4.349999904632568 -35.900001525878906 212.17999267578125 36.400001525878906" height="67.84603204524034" data-palette-color="#d2d6dc"><path d="M8.15 0L5.5 0Q4.95 0 4.65-0.33 4.35-0.65 4.35-1.15L4.35-1.15 4.35-33.85Q4.35-34.35 4.65-34.68 4.95-35 5.5-35L5.5-35 8.15-35Q8.7-35 9-34.68 9.3-34.35 9.3-33.85L9.3-33.85 9.3-1.15Q9.3-0.65 9-0.33 8.7 0 8.15 0L8.15 0ZM20.95 0L18.5 0Q18 0 17.67-0.33 17.35-0.65 17.35-1.15L17.35-1.15 17.35-24.8Q17.35-25.3 17.67-25.65 18-26 18.5-26L18.5-26 20.8-26Q21.3-26 21.65-25.65 22-25.3 22-24.8L22-24.8 22-22.6Q23-24.3 24.75-25.15 26.5-26 29-26L29-26 30.95-26Q31.45-26 31.77-25.68 32.1-25.35 32.1-24.85L32.1-24.85 32.1-22.8Q32.1-22.3 31.77-22 31.45-21.7 30.95-21.7L30.95-21.7 27.95-21.7Q25.25-21.7 23.7-20.13 22.15-18.55 22.15-15.85L22.15-15.85 22.15-1.15Q22.15-0.65 21.8-0.33 21.45 0 20.95 0L20.95 0ZM39.9 0L37.5 0Q37 0 36.67-0.33 36.35-0.65 36.35-1.15L36.35-1.15 36.35-24.85Q36.35-25.35 36.67-25.68 37-26 37.5-26L37.5-26 39.9-26Q40.4-26 40.72-25.68 41.05-25.35 41.05-24.85L41.05-24.85 41.05-1.15Q41.05-0.65 40.72-0.33 40.4 0 39.9 0L39.9 0ZM40.25-30.85L37.1-30.85Q36.6-30.85 36.27-31.18 35.95-31.5 35.95-32L35.95-32 35.95-34.7Q35.95-35.2 36.27-35.55 36.6-35.9 37.1-35.9L37.1-35.9 40.25-35.9Q40.75-35.9 41.1-35.55 41.45-35.2 41.45-34.7L41.45-34.7 41.45-32Q41.45-31.5 41.1-31.18 40.75-30.85 40.25-30.85L40.25-30.85ZM57.94 0.5L57.94 0.5Q55.19 0.5 53.19-0.48 51.19-1.45 49.92-3.13 48.64-4.8 48.02-6.95 47.39-9.1 47.29-11.5L47.29-11.5Q47.24-12.3 47.24-13 47.24-13.7 47.29-14.5L47.29-14.5Q47.39-16.85 48.02-19 48.64-21.15 49.92-22.85 51.19-24.55 53.19-25.53 55.19-26.5 57.94-26.5L57.94-26.5Q60.89-26.5 62.84-25.45 64.79-24.4 66.04-22.85L66.04-22.85 66.04-34.35Q66.04-34.85 66.37-35.18 66.69-35.5 67.19-35.5L67.19-35.5 69.59-35.5Q70.09-35.5 70.42-35.18 70.74-34.85 70.74-34.35L70.74-34.35 70.74-1.15Q70.74-0.65 70.42-0.33 70.09 0 69.59 0L69.59 0 67.34 0Q66.79 0 66.49-0.33 66.19-0.65 66.19-1.15L66.19-1.15 66.19-3.25Q64.94-1.65 62.94-0.58 60.94 0.5 57.94 0.5ZM58.99-3.55L58.99-3.55Q61.49-3.55 62.99-4.7 64.49-5.85 65.24-7.63 65.99-9.4 66.04-11.25L66.04-11.25Q66.09-12.05 66.09-13.18 66.09-14.3 66.04-15.1L66.04-15.1Q65.99-16.85 65.22-18.55 64.44-20.25 62.92-21.35 61.39-22.45 58.99-22.45L58.99-22.45Q56.44-22.45 54.94-21.33 53.44-20.2 52.79-18.38 52.14-16.55 52.04-14.45L52.04-14.45Q51.99-13 52.04-11.55L52.04-11.55Q52.14-9.45 52.79-7.63 53.44-5.8 54.94-4.67 56.44-3.55 58.99-3.55ZM81.74 0L79.34 0Q78.84 0 78.52-0.33 78.19-0.65 78.19-1.15L78.19-1.15 78.19-24.85Q78.19-25.35 78.52-25.68 78.84-26 79.34-26L79.34-26 81.74-26Q82.24-26 82.57-25.68 82.89-25.35 82.89-24.85L82.89-24.85 82.89-1.15Q82.89-0.65 82.57-0.33 82.24 0 81.74 0L81.74 0ZM82.09-30.85L78.94-30.85Q78.44-30.85 78.12-31.18 77.79-31.5 77.79-32L77.79-32 77.79-34.7Q77.79-35.2 78.12-35.55 78.44-35.9 78.94-35.9L78.94-35.9 82.09-35.9Q82.59-35.9 82.94-35.55 83.29-35.2 83.29-34.7L83.29-34.7 83.29-32Q83.29-31.5 82.94-31.18 82.59-30.85 82.09-30.85L82.09-30.85ZM99.99 0.5L99.99 0.5Q96.79 0.5 94.56-0.93 92.34-2.35 91.19-4.9 90.04-7.45 90.04-10.75L90.04-10.75 90.04-24.85Q90.04-25.35 90.36-25.68 90.69-26 91.19-26L91.19-26 93.69-26Q94.19-26 94.51-25.68 94.84-25.35 94.84-24.85L94.84-24.85 94.84-11Q94.84-3.55 101.34-3.55L101.34-3.55Q104.44-3.55 106.31-5.53 108.19-7.5 108.19-11L108.19-11 108.19-24.85Q108.19-25.35 108.51-25.68 108.84-26 109.34-26L109.34-26 111.84-26Q112.34-26 112.64-25.68 112.94-25.35 112.94-24.85L112.94-24.85 112.94-1.15Q112.94-0.65 112.64-0.33 112.34 0 111.84 0L111.84 0 109.49 0Q108.99 0 108.66-0.33 108.34-0.65 108.34-1.15L108.34-1.15 108.34-3.35Q106.99-1.6 105.06-0.55 103.14 0.5 99.99 0.5ZM123.94 0L121.53 0Q121.03 0 120.71-0.33 120.39-0.65 120.39-1.15L120.39-1.15 120.39-24.85Q120.39-25.35 120.71-25.68 121.03-26 121.53-26L121.53-26 123.78-26Q124.28-26 124.61-25.68 124.94-25.35 124.94-24.85L124.94-24.85 124.94-23.1Q126.09-24.65 127.84-25.58 129.59-26.5 132.03-26.5L132.03-26.5Q137.69-26.55 140.03-21.9L140.03-21.9Q141.19-24 143.38-25.25 145.59-26.5 148.38-26.5L148.38-26.5Q150.99-26.5 153.11-25.3 155.24-24.1 156.46-21.68 157.69-19.25 157.69-15.6L157.69-15.6 157.69-1.15Q157.69-0.65 157.36-0.33 157.03 0 156.53 0L156.53 0 154.19 0Q153.69 0 153.36-0.33 153.03-0.65 153.03-1.15L153.03-1.15 153.03-15.15Q153.03-17.95 152.24-19.55 151.44-21.15 150.09-21.8 148.74-22.45 147.13-22.45L147.13-22.45Q145.84-22.45 144.49-21.8 143.13-21.15 142.26-19.55 141.38-17.95 141.38-15.15L141.38-15.15 141.38-1.15Q141.38-0.65 141.06-0.33 140.74 0 140.24 0L140.24 0 137.88 0Q137.38 0 137.06-0.33 136.74-0.65 136.74-1.15L136.74-1.15 136.74-15.15Q136.74-17.95 135.88-19.55 135.03-21.15 133.69-21.8 132.34-22.45 130.84-22.45L130.84-22.45Q129.53-22.45 128.19-21.8 126.84-21.15 125.96-19.55 125.09-17.95 125.09-15.2L125.09-15.2 125.09-1.15Q125.09-0.65 124.76-0.33 124.44 0 123.94 0L123.94 0ZM169.23 0L165.63 0Q165.13 0 164.81-0.33 164.48-0.65 164.48-1.15L164.48-1.15 164.48-4.75Q164.48-5.25 164.81-5.58 165.13-5.9 165.63-5.9L165.63-5.9 169.23-5.9Q169.73-5.9 170.08-5.58 170.43-5.25 170.43-4.75L170.43-4.75 170.43-1.15Q170.43-0.65 170.08-0.33 169.73 0 169.23 0L169.23 0ZM178.28 0L175.73 0Q175.33 0 175.03-0.3 174.73-0.6 174.73-1L174.73-1Q174.73-1.25 174.78-1.55L174.78-1.55 187.18-33.9Q187.38-34.4 187.73-34.7 188.08-35 188.78-35L188.78-35 192.18-35Q192.88-35 193.23-34.7 193.58-34.4 193.78-33.9L193.78-33.9 206.13-1.55Q206.23-1.25 206.23-1L206.23-1Q206.23-0.6 205.93-0.3 205.63 0 205.23 0L205.23 0 202.68 0Q202.08 0 201.81-0.3 201.53-0.6 201.43-0.85L201.43-0.85 198.68-7.95 182.28-7.95 179.53-0.85Q179.48-0.6 179.18-0.3 178.88 0 178.28 0L178.28 0ZM190.48-30L183.73-12.25 197.23-12.25 190.48-30ZM215.38 0L212.73 0Q212.18 0 211.88-0.33 211.58-0.65 211.58-1.15L211.58-1.15 211.58-33.85Q211.58-34.35 211.88-34.68 212.18-35 212.73-35L212.73-35 215.38-35Q215.93-35 216.23-34.68 216.53-34.35 216.53-33.85L216.53-33.85 216.53-1.15Q216.53-0.65 216.23-0.33 215.93 0 215.38 0L215.38 0Z" opacity="1" transform="matrix(1,0,0,1,0,0)" fill="#d2d6dc" class="wordmark-text-0" data-fill-palette-color="primary" id="text-0"></path></svg></g></svg></g></svg></g></svg></g><g><svg viewBox="0 0 93.76321628652215 93.76321628652215" height="93.76321628652215" width="93.76321628652215"><g><svg></svg></g><g id="icon-0"><svg viewBox="0 0 93.76321628652215 93.76321628652215" height="93.76321628652215" width="93.76321628652215"><g><path xmlns="http://www.w3.org/2000/svg" d="M28.129 93.763c-15.535 0-28.129-12.594-28.129-28.129v-37.505c0-15.535 12.594-28.129 28.129-28.129h37.505c15.535 0 28.129 12.594 28.129 28.129v37.505c0 15.535-12.594 28.129-28.129 28.129z" fill="#97978d" fill-rule="nonzero" stroke="none" stroke-width="1" stroke-linecap="butt" stroke-linejoin="miter" stroke-miterlimit="10" stroke-dasharray="" stroke-dashoffset="0" font-family="none" font-weight="none" font-size="none" text-anchor="none" style="mix-blend-mode: normal" data-fill-palette-color="accent"></path></g><g transform="matrix(1,0,0,1,30.544181572804114,18.75264325730443)"><svg viewBox="0 0 32.674853140913925 56.25792977191329" height="56.25792977191329" width="32.674853140913925"><g><svg xmlns="http://www.w3.org/2000/svg" data-name="Layer 1" viewBox="24.560001373291016 8.760000228881836 39.999996185302734 68.8699951171875" x="0" y="0" height="56.25792977191329" width="32.674853140913925" class="icon-s-0" data-fill-palette-color="quaternary" id="s-0"><path d="M51.78 41.59a1 1 0 0 1-0.66 1.25 1.06 1.06 0 0 1-0.3 0 1 1 0 1 1 1-1.3Zm-1.57-5a1 1 0 0 1-0.65 1.25 1 1 0 0 1-0.3 0.05 1 1 0 0 1-0.3-2A1 1 0 0 1 50.21 36.62Zm-3.13-9.95a1 1 0 0 1-0.65 1.26 1.09 1.09 0 0 1-0.31 0 1 1 0 1 1 1-1.3Zm-3.45-5.05a1.25 1.25 0 0 1 0.22-0.33l0.15-0.12a0.6 0.6 0 0 1 0.18-0.09l0.18-0.06a0.85 0.85 0 0 1 0.39 0 0.6 0.6 0 0 1 0.19 0.06 0.55 0.55 0 0 1 0.17 0.09 0.6 0.6 0 0 1 0.15 0.12 0.91 0.91 0 0 1 0.22 0.33 0.94 0.94 0 0 1 0 0.76 0.92 0.92 0 0 1-0.22 0.33 0.6 0.6 0 0 1-0.15 0.12 0.55 0.55 0 0 1-0.17 0.09 0.61 0.61 0 0 1-0.19 0.06l-0.19 0-0.2 0-0.18-0.06a0.6 0.6 0 0 1-0.18-0.09l-0.15-0.12a1.26 1.26 0 0 1-0.22-0.33 1.06 1.06 0 0 1 0-0.76ZM42 26.67a1 1 0 1 1 1.9 0.61A1 1 0 0 1 43 28a0.79 0.79 0 0 1-0.3 0A1 1 0 0 1 42 26.67Zm-3.17 9.94a1 1 0 1 1 1.9 0.61 1 1 0 0 1-1 0.7 1.16 1.16 0 0 1-0.31-0.05A1 1 0 0 1 38.85 36.61Zm-1.59 5a1 1 0 1 1 1 1.3 1 1 0 0 1-0.3 0A1 1 0 0 1 37.26 41.59Zm-6.18 11a1 1 0 0 1-1.09 0.22 1 1 0 0 1-0.32-0.22 1 1 0 0 1-0.3-0.71 1 1 0 0 1 0.08-0.38 0.86 0.86 0 0 1 0.22-0.32 0.65 0.65 0 0 1 0.15-0.13 0.89 0.89 0 0 1 0.17-0.09 0.68 0.68 0 0 1 0.19-0.06 1 1 0 0 1 0.9 0.28 1 1 0 0 1 0.29 0.7A1 1 0 0 1 31.08 52.54Zm4 0.29H35a1 1 0 0 1-0.38-0.07 1 1 0 0 1-0.32-0.22 0.88 0.88 0 0 1-0.22-0.32 1 1 0 0 1-0.08-0.39 1 1 0 0 1 0.3-0.7 0.88 0.88 0 0 1 0.32-0.22 1 1 0 0 1 0.37-0.07h0.07l0.12 0h0a1 1 0 0 1 0.84 1A1 1 0 0 1 35.1 52.83Zm0.58-6.27a1 1 0 0 1 1.9 0.6 1 1 0 0 1-1 0.7 0.84 0.84 0 0 1-0.31 0A1 1 0 0 1 35.68 46.56ZM37.9 57a1 1 0 0 1-0.48 0.12 1 1 0 0 1-0.87-0.51A1 1 0 1 1 37.9 57Zm2.38 4.29a1 1 0 0 1-0.48 0.12 1 1 0 0 1-0.49-1.87 1 1 0 1 1 1 1.75Zm-0.45-8.46a1 1 0 1 1 1-1A1 1 0 0 1 39.83 52.83Zm0.6-21.19a1 1 0 1 1 1 1.3 1 1 0 0 1-0.3 0A1 1 0 0 1 40.43 31.64Zm2.23 33.94a0.94 0.94 0 0 1-0.48 0.13 1 1 0 0 1-0.88-0.52 1 1 0 0 1 0.39-1.36 1 1 0 1 1 1 1.75Zm2.6 4.13a1 1 0 0 1-0.7 0.29 1 1 0 0 1-0.38-0.08 1 1 0 0 1-0.33-0.21 1 1 0 0 1-0.29-0.71 1 1 0 0 1 0.29-0.71l0.15-0.12a0.59 0.59 0 0 1 0.18-0.09l0.18-0.06a0.88 0.88 0 0 1 0.39 0 0.62 0.62 0 0 1 0.19 0.06 0.54 0.54 0 0 1 0.17 0.09 0.61 0.61 0 0 1 0.15 0.12 1 1 0 0 1 0.3 0.71A1 1 0 0 1 45.26 69.71Zm-0.7-16.88a1 1 0 1 1 1-1A1 1 0 0 1 44.56 52.83Zm3.22 12.36a1 1 0 0 1-0.87 0.52 1 1 0 1 1 0.87-0.52Zm-0.09-32.24a1 1 0 1 1 0.3 0A1.06 1.06 0 0 1 47.69 32.95ZM50.14 60.9a1 1 0 0 1-0.88 0.52 0.91 0.91 0 0 1-0.48-0.13 1 1 0 0 1-0.4-1.35 1 1 0 0 1 1.36-0.4A1 1 0 0 1 50.14 60.9Zm-0.85-8.07a1 1 0 1 1 1-1A1 1 0 0 1 49.29 52.83Zm3.2 3.77a1 1 0 0 1-0.88 0.53 0.91 0.91 0 0 1-0.48-0.13 1 1 0 0 1-0.4-1.35 1 1 0 0 1 1.76 1Zm-0.1-8.74a1 1 0 1 1 0.3 0A1 1 0 0 1 52.39 47.86Zm1.63 5H54a1 1 0 0 1-0.39-0.07 1 1 0 0 1-0.32-0.22 1 1 0 0 1-0.29-0.71 1 1 0 0 1 0.29-0.7 1 1 0 0 1 0.72-0.29h0l0.08 0h0l0.06 0 0.13 0 0.05 0a1 1 0 0 1 0.63 0.89A1 1 0 0 1 54 52.83Zm4.73 0a1 1 0 0 1-0.38-0.07 1.18 1.18 0 0 1-0.33-0.22 1 1 0 0 1 0-1.41l0.15-0.13a1.41 1.41 0 0 1 0.18-0.09 0.62 0.62 0 0 1 0.18-0.06 1 1 0 0 1 0.91 0.28 1 1 0 0 1 0.21 0.32 1 1 0 0 1-0.92 1.38Z" fill="#636365" data-fill-palette-color="quaternary"></path><path d="M44.56 8.76l-20 43.59 20 25.28 20-25.28ZM27.49 52L44.56 14.76 61.63 52 44.56 73.59Z" fill="#636365" data-fill-palette-color="quaternary"></path><path d="M53.35 46.56a1 1 0 0 0-1.26-0.65 1 1 0 0 0 0.3 1.95 1 1 0 0 0 0.3 0A1 1 0 0 0 53.35 46.56Z" fill="#636365" data-fill-palette-color="quaternary"></path><path d="M48.64 31.64a1 1 0 1 0-1 1.31 1.06 1.06 0 0 0 0.3 0A1 1 0 0 0 48.64 31.64Z" fill="#636365" data-fill-palette-color="quaternary"></path><path d="M49.87 42.19a1 1 0 0 0 0.95 0.7 1.06 1.06 0 0 0 0.3 0 1 1 0 1 0-1.25-0.65Z" fill="#636365" data-fill-palette-color="quaternary"></path><path d="M48.3 37.22a1 1 0 0 0 1 0.7 1 1 0 0 0 0.3-0.05A1 1 0 0 0 49 36 1 1 0 0 0 48.3 37.22Z" fill="#636365" data-fill-palette-color="quaternary"></path><path d="M45.17 27.27a1 1 0 0 0 1 0.7 1.09 1.09 0 0 0 0.31 0 1 1 0 0 0 0.65-1.26 1 1 0 0 0-1.91 0.6Z" fill="#636365" data-fill-palette-color="quaternary"></path><path d="M54.15 50.85h0l0.11 0Z" fill="#636365" data-fill-palette-color="quaternary"></path><path d="M53 51.83a1 1 0 0 1 1-1 1 1 0 0 0-0.72 0.29 1 1 0 0 0-0.29 0.7 1 1 0 0 0 0.29 0.71 1 1 0 0 0 0.32 0.22 1 1 0 0 0 0.39 0.07h0A1 1 0 0 1 53 51.83Z" fill="#636365" data-fill-palette-color="quaternary"></path><path d="M49.74 59.54a1 1 0 0 0-1.36 0.4 1 1 0 0 0 0.4 1.35 0.91 0.91 0 0 0 0.48 0.13 1 1 0 0 0 0.88-0.52A1 1 0 0 0 49.74 59.54Z" fill="#636365" data-fill-palette-color="quaternary"></path><path d="M47.39 63.83a1 1 0 1 0 0.39 1.36A1 1 0 0 0 47.39 63.83Z" fill="#636365" data-fill-palette-color="quaternary"></path><path d="M52.09 55.25a1 1 0 0 0-1.36 0.4 1 1 0 0 0 0.4 1.35 0.91 0.91 0 0 0 0.48 0.13 1 1 0 0 0 0.88-0.53A1 1 0 0 0 52.09 55.25Z" fill="#636365" data-fill-palette-color="quaternary"></path><path d="M43.85 22.71l0.15 0.12a0.6 0.6 0 0 0 0.18 0.09l0.18 0.06 0.2 0 0.19 0a0.61 0.61 0 0 0 0.19-0.06 0.55 0.55 0 0 0 0.17-0.09 0.6 0.6 0 0 0 0.15-0.12 0.92 0.92 0 0 0 0.22-0.33 0.94 0.94 0 0 0 0-0.76 0.91 0.91 0 0 0-0.22-0.33 0.6 0.6 0 0 0-0.15-0.12 0.55 0.55 0 0 0-0.17-0.09 0.6 0.6 0 0 0-0.19-0.06 0.85 0.85 0 0 0-0.39 0l-0.18 0.06a0.6 0.6 0 0 0-0.18 0.09l-0.15 0.12a1.25 1.25 0 0 0-0.22 0.33 1.06 1.06 0 0 0 0 0.76A1.26 1.26 0 0 0 43.85 22.71Z" fill="#636365" data-fill-palette-color="quaternary"></path><path d="M42.34 32.25a1 1 0 0 0-1.91-0.61 1 1 0 0 0 0.65 1.26 1 1 0 0 0 0.3 0A1 1 0 0 0 42.34 32.25Z" fill="#636365" data-fill-palette-color="quaternary"></path><path d="M42.67 27.92a0.79 0.79 0 0 0 0.3 0 1 1 0 0 0 1-0.69 1 1 0 1 0-1.9-0.61A1 1 0 0 0 42.67 27.92Z" fill="#636365" data-fill-palette-color="quaternary"></path><path d="M37.91 42.84a1 1 0 0 0 0.3 0 1 1 0 1 0-1-1.3A1 1 0 0 0 37.91 42.84Z" fill="#636365" data-fill-palette-color="quaternary"></path><path d="M37.58 47.16a1 1 0 1 0-1.26 0.65 0.84 0.84 0 0 0 0.31 0A1 1 0 0 0 37.58 47.16Z" fill="#636365" data-fill-palette-color="quaternary"></path><path d="M39.49 37.87a1.16 1.16 0 0 0 0.31 0.05 1 1 0 0 0 0.3-2 1 1 0 0 0-0.61 1.91Z" fill="#636365" data-fill-palette-color="quaternary"></path><path d="M34.1 51.83a1 1 0 0 1 0.93-1 1 1 0 0 0-0.37 0.07 0.88 0.88 0 0 0-0.32 0.22 1 1 0 0 0-0.3 0.7 1 1 0 0 0 0.08 0.39 0.88 0.88 0 0 0 0.22 0.32 1 1 0 0 0 0.32 0.22 1 1 0 0 0 0.38 0.07h0A1 1 0 0 1 34.1 51.83Z" fill="#636365" data-fill-palette-color="quaternary"></path><path d="M41.69 63.83a1 1 0 0 0-0.39 1.36 1 1 0 0 0 0.88 0.52 0.94 0.94 0 0 0 0.48-0.13 1 1 0 1 0-1-1.75Z" fill="#636365" data-fill-palette-color="quaternary"></path><path d="M39.31 59.54a1 1 0 0 0 0.49 1.87 1 1 0 0 0 0.48-0.12 1 1 0 1 0-1-1.75Z" fill="#636365" data-fill-palette-color="quaternary"></path><path d="M36.94 55.25a1 1 0 0 0-0.39 1.36 1 1 0 0 0 0.87 0.51A1 1 0 0 0 37.9 57a1 1 0 0 0-1-1.75Z" fill="#636365" data-fill-palette-color="quaternary"></path><path d="M45.11 68.17a0.54 0.54 0 0 0-0.17-0.09 0.62 0.62 0 0 0-0.19-0.06 0.88 0.88 0 0 0-0.39 0l-0.18 0.06a0.59 0.59 0 0 0-0.18 0.09l-0.15 0.12a1 1 0 0 0-0.29 0.71 1 1 0 0 0 0.29 0.71 1 1 0 0 0 0.33 0.21 1 1 0 0 0 0.38 0.08 1 1 0 0 0 0.7-0.29 1 1 0 0 0 0.3-0.71 1 1 0 0 0-0.3-0.71A0.61 0.61 0 0 0 45.11 68.17Z" fill="#636365" data-fill-palette-color="quaternary"></path><path d="M30.18 50.85a0.68 0.68 0 0 0-0.19 0.06 0.89 0.89 0 0 0-0.17 0.09 0.65 0.65 0 0 0-0.15 0.13 0.86 0.86 0 0 0-0.22 0.32 1 1 0 0 0-0.08 0.38 1 1 0 0 0 0.3 0.71 1 1 0 0 0 0.32 0.22 1 1 0 0 0 1.38-0.93 1 1 0 0 0-0.29-0.7A1 1 0 0 0 30.18 50.85Z" fill="#636365" data-fill-palette-color="quaternary"></path><path d="M54.39 50.94l0.12 0.06a0.66 0.66 0 0 1 0.15 0.13 0.88 0.88 0 0 1 0.22 0.32 1 1 0 0 1-0.22 1.09 1 1 0 0 1-0.67 0.28h0a1 1 0 0 0 1-1A1 1 0 0 0 54.39 50.94Z" fill="#636365" data-fill-palette-color="quaternary"></path><path d="M54 50.83h0.08Z" fill="#636365" data-fill-palette-color="quaternary"></path><path d="M35.1 50.83h0.12Z" fill="#636365" data-fill-palette-color="quaternary"></path><circle cx="44.56" cy="51.83" r="1.0" fill="#636365" data-fill-palette-color="quaternary"></circle><circle cx="49.29" cy="51.83" r="1.0" fill="#636365" data-fill-palette-color="quaternary"></circle><circle cx="39.83" cy="51.83" r="1.0" fill="#636365" data-fill-palette-color="quaternary"></circle><path d="M35.26 50.86a1 1 0 0 1 0.78 1 1 1 0 0 1-0.07 0.39 1 1 0 0 1-0.22 0.32 1 1 0 0 1-0.68 0.28h0a1 1 0 0 0 1-1A1 1 0 0 0 35.26 50.86Z" fill="#636365" data-fill-palette-color="quaternary"></path><path d="M55 51.83a1 1 0 0 0-0.08-0.38 0.88 0.88 0 0 0-0.22-0.32 0.66 0.66 0 0 0-0.15-0.13l-0.12-0.06-0.05 0-0.13 0-0.11 0H54a1 1 0 0 0 0 2 1 1 0 0 0 0.67-0.28A1 1 0 0 0 55 51.83Z" fill="#636365" data-fill-palette-color="quaternary"></path><path d="M36 52.22a1 1 0 0 0 0.07-0.39 1 1 0 0 0-0.78-1H35a1 1 0 1 0 0.72 1.7A1 1 0 0 0 36 52.22Z" fill="#636365" data-fill-palette-color="quaternary"></path><path d="M59.67 51.45a1 1 0 0 0-0.21-0.32 1 1 0 0 0-0.91-0.28 0.62 0.62 0 0 0-0.18 0.06 1.41 1.41 0 0 0-0.18 0.09l-0.15 0.13a1 1 0 0 0-0.21 0.32A1 1 0 0 0 58 52.54a1.18 1.18 0 0 0 0.33 0.22 1 1 0 0 0 1.3-1.31Z" fill="#636365" data-fill-palette-color="quaternary"></path></svg></g></svg></g></svg></g></svg></g></svg></g><defs></defs></svg><rect width="395.52" height="73.39248892277932" fill="none" stroke="none" visibility="hidden"></rect></g></svg></g></svg>